<?xml version="1.0" encoding="UTF-8"?>
<svg id="_レイヤー_4" data-name="レイヤー 4" xmlns="http://www.w3.org/2000/svg" viewBox="0 0 512 512">
  <defs>
    <style>
      .cls-1 {
        fill: #05c;
      }

      .cls-2 {
        fill: #9ff;
      }
    </style>
  </defs>
  <path class="cls-2" d="M97.58,276.88l104.71-16.36c2.02-.31,3.3-2.33,2.73-4.29l-15.2-52.73c-.73-2.53-3.93-3.29-5.74-1.37-27.2,28.88-62.49,50.05-102.26,59.87-1.42,.35-2.48,1.56-2.59,3.03-.28,3.93-.43,7.88-.43,11.85,0,21.94,4.29,43.2,12.74,63.18,3.84,9.08,8.51,17.8,13.93,26.02,1.18,1.79,3.71,2.05,5.23,.53l73.75-70.65c2.03-1.94,.95-5.36-1.82-5.8l-85.05-13.29Z"/>
  <path class="cls-2" d="M252.51,356.16l-20.68-37.43c-1.09-1.97-3.77-2.35-5.36-.76l-83.47,83.47c-1.44,1.44-1.29,3.83,.32,5.08,27.03,20.96,60.7,31.91,94.54,32.67,1.95,.04,3.54-1.56,3.47-3.51-.1-2.64-.15-5.29-.15-7.95,0-24.11,4.08-47.26,11.57-68.83,.32-.91,.24-1.91-.23-2.75Z"/>
  <path class="cls-2" d="M241.71,235.61l89.18-89.18c1.52-1.52,1.26-4.05-.53-5.23-8.22-5.42-16.94-10.09-26.02-13.93-19.99-8.45-41.24-12.74-63.18-12.74-1.75,0-3.49,.03-5.23,.09-1.46,.05-2.71,1.05-3.12,2.46-6.1,20.94-15.38,40.52-27.28,58.2-.71,1.06-.78,2.42-.16,3.54l30.97,56.05c1.09,1.97,3.77,2.35,5.36,.76Z"/>
  <path class="cls-1" d="M461.6,25.3l-88.48,88.48C172.82-38.79-74.45,208.74,78.06,408.85L.21,486.7H48.15l53.3-53.3c126.66,115.18,336.39,31.69,348.84-139.56h-40.82c-14.19,136.37-175.47,200.33-279.22,110.76l99.97-99.97,61.51,111.31-35.85-124.4,153.59-14.65-137.79-13.73L461.6,73.24V486.7h50.18V25.3h-50.18ZM237.95,248.96l-61.4-111.12,36.45,126.5-80.29,12.55,66.87,10.45-92.57,92.57c-51.58-65.56-45.17-164.3,14.56-222.62,58.47-59.76,156.9-66.17,222.61-14.56l-106.23,106.23Z"/>
</svg>